<svg xmlns="http://www.w3.org/2000/svg" viewBox="0 0 32 32">
  <path d="M28.68 11.16c-.7-.95-1.66-2.05-2.72-3.12s-2.17-2.03-3.12-2.72C21.23 4.14 20.44 4 20 4H8.5A2.5 2.5 0 0 0 6 6.5v23A2.5 2.5 0 0 0 8.5 32h19a2.5 2.5 0 0 0 2.5-2.5V14c0-.45-.14-1.23-1.32-2.84zm-4.14-1.7c.96.96 1.72 1.82 2.27 2.54H22V7.19c.72.55 1.58 1.3 2.54 2.27zM28 29.5a.5.5 0 0 1-.5.5h-19a.5.5 0 0 1-.5-.5v-23c0-.27.23-.5.5-.5H20v7a1 1 0 0 0 1 1h7v15.5z"/>
  <path d="M18.84 1.32C17.23.14 16.44 0 16 0H4.5A2.5 2.5 0 0 0 2 2.5v23c0 1.2.86 2.22 2 2.45V2.5c0-.27.23-.5.5-.5h15.21c-.3-.25-.59-.48-.87-.68z"/>
</svg>
